<?xml version="1.0" encoding="UTF-8" standalone="no"?><!-- Generator: Gravit.io --><svg xmlns="http://www.w3.org/2000/svg" xmlns:xlink="http://www.w3.org/1999/xlink" style="isolation:isolate" viewBox="0 0 512 512" width="512pt" height="512pt"><defs><clipPath id="_clipPath_xwItTXLkPuPaSmSkOuT25IYBV6vAmnuH"><rect width="512" height="512"/></clipPath></defs><g clip-path="url(#_clipPath_xwItTXLkPuPaSmSkOuT25IYBV6vAmnuH)"><path d=" M 287.371 252.116 L 267.421 287.426 C 265.788 290.581 266.206 294.408 268.48 297.137 L 276.425 307.818 L 281.987 302.786 C 285.449 299.182 290.23 297.145 295.228 297.145 C 300.226 297.145 305.007 299.182 308.469 302.786 L 314.207 308.789 L 322.593 299.961 C 325.306 297.179 325.879 292.949 324.006 289.545 L 303.261 252.116 C 301.786 249.07 298.7 247.136 295.316 247.136 C 291.932 247.136 288.846 249.07 287.371 252.116 Z " fill="rgb(0,0,0)"/><path d=" M 279.691 497.17 L 178.527 385.589 C 176.634 383.523 173.873 382.479 171.086 382.775 C 168.3 383.071 165.82 384.672 164.403 387.09 L 110.82 478.455 C 107.86 483.558 102.548 486.846 96.662 487.218 C 90.775 487.59 85.091 484.998 81.512 480.309 L 79.658 477.926 C 77.818 475.536 74.884 474.252 71.88 474.52 C 68.876 474.788 66.216 476.572 64.828 479.25 L 54.588 498.935 C 53.082 501.688 53.15 505.033 54.767 507.722 C 56.384 510.412 59.307 512.04 62.445 512 L 273.071 512 C 276.608 512.06 279.839 510.002 281.281 506.772 C 282.723 503.542 282.097 499.763 279.691 497.17 Z " fill="rgb(0,0,0)"/><path d=" M 525.363 479.073 C 523.992 476.384 521.341 474.581 518.336 474.295 C 515.33 474.009 512.387 475.278 510.533 477.661 L 508.414 480.309 C 504.836 484.998 499.152 487.59 493.265 487.218 C 487.378 486.846 482.066 483.558 479.107 478.455 L 426.847 388.414 C 425.377 385.918 422.775 384.303 419.886 384.091 C 416.997 383.88 414.188 385.099 412.37 387.354 L 407.515 393.357 C 405.288 396.16 404.974 400.031 406.72 403.156 L 435.145 454.444 C 436.275 456.503 436.537 458.928 435.875 461.181 C 435.212 463.434 433.679 465.33 431.614 466.45 C 427.346 468.743 422.027 467.167 419.697 462.919 L 335.747 311.702 C 326.919 321.589 323.3 326.621 314.119 326.621 C 304.938 326.621 300.701 320.618 295.228 314.88 L 289.755 319.912 C 286.183 324.016 280.918 326.245 275.485 325.951 C 270.052 325.658 265.057 322.876 261.948 318.411 L 255.151 309.583 L 211.542 387.001 C 209.71 390.325 210.208 394.449 212.778 397.241 L 314.207 508.999 C 315.86 510.881 318.235 511.972 320.74 512 L 527.747 512 C 530.832 512.006 533.697 510.402 535.302 507.767 C 536.908 505.133 537.022 501.851 535.603 499.112 L 525.363 479.073 Z " fill="rgb(0,0,0)"/><path d=" M 118.411 119.967 C 118.411 65.148 118.411 70.621 117.617 70.621 C 80.705 70.641 48.785 96.353 40.905 132.414 L 106.229 132.414 C 113.02 132.317 118.461 126.758 118.411 119.967 Z " fill="rgb(0,0,0)"/><path d=" M 100.756 185.379 L 100.756 211.862 L 74.273 211.862 C 69.398 211.862 65.446 215.814 65.446 220.69 C 65.446 225.565 69.398 229.517 74.273 229.517 L 136.067 229.517 L 136.067 317.793 C 136.067 322.668 140.019 326.621 144.894 326.621 C 149.77 326.621 153.722 322.668 153.722 317.793 L 153.722 229.517 L 224.342 229.517 C 229.218 229.517 233.17 225.565 233.17 220.69 C 233.17 215.814 229.218 211.862 224.342 211.862 L 197.86 211.862 L 197.86 185.379 C 232.453 184.653 261.562 159.261 266.98 125.087 C 267.898 118.483 273.158 113.332 279.78 112.552 L 440.795 100.37 C 448.213 99.812 453.927 93.596 453.86 86.157 L 453.86 24.364 C 453.86 20.464 450.698 17.302 446.798 17.302 L 436.646 17.302 C 433.443 17.3 430.63 19.428 429.76 22.51 L 418.549 65.412 C 417.742 68.499 414.942 70.644 411.752 70.621 L 189.032 70.621 L 189.032 35.31 L 312.618 35.31 C 317.494 35.31 321.446 31.358 321.446 26.483 C 321.446 21.607 317.494 17.655 312.618 17.655 L 189.032 17.655 L 189.032 8.828 C 189.032 3.952 185.08 0 180.205 0 C 175.329 0 171.377 3.952 171.377 8.828 L 171.377 17.655 L 47.791 17.655 C 42.915 17.655 38.963 21.607 38.963 26.483 C 38.963 31.358 42.915 35.31 47.791 35.31 L 171.377 35.31 L 171.377 70.621 L 136.067 70.621 L 136.067 119.967 C 136.116 136.509 122.771 149.972 106.229 150.069 C 14.334 150.069 45.672 150.069 38.963 150.069 C 39.205 169.642 55.141 185.381 74.715 185.379 L 100.756 185.379 Z  M 153.722 185.379 L 180.205 185.379 L 180.205 211.862 L 153.722 211.862 L 153.722 185.379 Z  M 118.411 185.379 L 136.067 185.379 L 136.067 211.862 L 118.411 211.862 L 118.411 185.379 Z " fill="rgb(0,0,0)"/></g></svg>